<?xml version="1.0" encoding="utf-8"?>
<!-- Generator: Adobe Illustrator 16.0.0, SVG Export Plug-In . SVG Version: 6.00 Build 0)  -->
<!DOCTYPE svg PUBLIC "-//W3C//DTD SVG 1.1//EN" "http://www.w3.org/Graphics/SVG/1.1/DTD/svg11.dtd">
<svg version="1.1" id="Isolation_Mode" xmlns="http://www.w3.org/2000/svg" xmlns:xlink="http://www.w3.org/1999/xlink" x="0px"
	 y="0px" width="21.428px" height="20.458px" viewBox="0 0 21.428 20.458" enable-background="new 0 0 21.428 20.458"
	 xml:space="preserve">
<g>
	<path fill="#1BAA4B" d="M20.4,0.658c0,2.053-0.312,3.828-0.935,5.324c-0.621,1.497-1.667,2.983-3.135,4.458
		c-0.667,0.66-1.471,1.385-2.41,2.177l-0.249,4.688c-0.017,0.131-0.082,0.238-0.198,0.321l-4.748,2.771
		c-0.059,0.033-0.124,0.049-0.198,0.049c-0.1,0-0.194-0.036-0.283-0.111l-0.792-0.792c-0.107-0.116-0.142-0.248-0.1-0.396
		l1.052-3.413l-3.476-3.476L1.515,13.31c-0.024,0.009-0.061,0.013-0.11,0.013c-0.115,0-0.21-0.037-0.284-0.111l-0.791-0.792
		c-0.141-0.156-0.161-0.317-0.063-0.482l2.77-4.749c0.083-0.117,0.189-0.182,0.322-0.198l4.687-0.248
		C8.836,5.803,9.563,5,10.223,4.332c1.55-1.542,3.025-2.606,4.426-3.191c1.402-0.585,3.179-0.878,5.332-0.878
		c0.114,0,0.214,0.04,0.296,0.118C20.358,0.458,20.4,0.551,20.4,0.658z M17.284,5.061c0.23-0.23,0.346-0.511,0.346-0.841
		c0-0.329-0.115-0.61-0.346-0.841c-0.232-0.231-0.513-0.347-0.842-0.347s-0.61,0.116-0.84,0.347
		c-0.231,0.23-0.348,0.512-0.348,0.841c0,0.33,0.116,0.61,0.348,0.841c0.229,0.231,0.511,0.346,0.84,0.346
		S17.052,5.292,17.284,5.061z"/>
</g>
</svg>
