<?xml version="1.0" encoding="utf-8"?>
<!-- Generator: Adobe Illustrator 16.0.0, SVG Export Plug-In . SVG Version: 6.00 Build 0)  -->
<!DOCTYPE svg PUBLIC "-//W3C//DTD SVG 1.1//EN" "http://www.w3.org/Graphics/SVG/1.1/DTD/svg11.dtd">
<svg version="1.1" id="Isolation_Mode" xmlns="http://www.w3.org/2000/svg" xmlns:xlink="http://www.w3.org/1999/xlink" x="0px"
	 y="0px" width="21.428px" height="20.458px" viewBox="0 0 21.428 20.458" enable-background="new 0 0 21.428 20.458"
	 xml:space="preserve">
<g>
	<path fill="#1BAA4B" d="M21.43,2.243v12.143c0,0.491-0.176,0.912-0.525,1.261s-0.77,0.524-1.262,0.524h-6.07
		c0,0.275,0.059,0.564,0.178,0.865s0.238,0.565,0.357,0.792c0.119,0.228,0.18,0.389,0.18,0.485c0,0.193-0.072,0.361-0.213,0.503
		c-0.141,0.141-0.309,0.212-0.502,0.212H7.857c-0.193,0-0.361-0.071-0.502-0.212c-0.141-0.142-0.213-0.31-0.213-0.503
		c0-0.104,0.061-0.268,0.18-0.49C7.441,17.6,7.561,17.34,7.68,17.042c0.119-0.297,0.178-0.587,0.178-0.871h-6.07
		c-0.492,0-0.912-0.175-1.262-0.524S0,14.877,0,14.386V2.243c0-0.491,0.176-0.912,0.525-1.261s0.77-0.525,1.262-0.525h17.855
		c0.492,0,0.912,0.175,1.262,0.525S21.43,1.752,21.43,2.243z M20,11.529V2.243c0-0.097-0.035-0.181-0.105-0.251
		c-0.07-0.07-0.154-0.106-0.252-0.106H1.787c-0.098,0-0.182,0.036-0.252,0.106C1.465,2.063,1.43,2.146,1.43,2.243v9.286
		c0,0.097,0.035,0.18,0.105,0.251s0.154,0.106,0.252,0.106h17.855c0.098,0,0.182-0.035,0.252-0.106S20,11.625,20,11.529z"/>
</g>
</svg>
