<?xml version="1.0" encoding="utf-8"?>
<!-- Generator: Adobe Illustrator 16.0.0, SVG Export Plug-In . SVG Version: 6.00 Build 0)  -->
<!DOCTYPE svg PUBLIC "-//W3C//DTD SVG 1.1//EN" "http://www.w3.org/Graphics/SVG/1.1/DTD/svg11.dtd">
<svg version="1.1" id="Isolation_Mode" xmlns="http://www.w3.org/2000/svg" xmlns:xlink="http://www.w3.org/1999/xlink" x="0px"
	 y="0px" width="21.428px" height="20.458px" viewBox="0 0 21.428 20.458" enable-background="new 0 0 21.428 20.458"
	 xml:space="preserve">
<path fill="#1BAA4B" d="M14.254,7.368c-0.278-0.704-0.854-1.259-1.569-1.51C12.412,5.762,12.12,5.71,11.815,5.71
	c-1.447,0-2.62,1.173-2.62,2.622c0,1.448,1.173,2.621,2.62,2.621c1.448,0,2.62-1.173,2.62-2.621
	C14.436,7.991,14.371,7.666,14.254,7.368z M12.123,9.665c-0.389,0-0.746-0.159-0.967-0.453c-0.108-0.135-0.188-0.305-0.223-0.516
	h-0.259V8.415h0.219V8.348c0-0.04,0.004-0.08,0.004-0.119h-0.223V7.947h0.266c0.052-0.214,0.147-0.397,0.274-0.543
	c0.227-0.254,0.543-0.405,0.916-0.405c0.242,0,0.452,0.056,0.596,0.12l-0.111,0.452c-0.103-0.043-0.266-0.095-0.44-0.095
	c-0.19,0-0.364,0.064-0.488,0.214c-0.056,0.064-0.1,0.155-0.127,0.258h0.989v0.282h-1.048c-0.005,0.04-0.005,0.083-0.005,0.123
	v0.063h1.053v0.281h-0.997c0.028,0.119,0.071,0.21,0.131,0.278c0.128,0.143,0.313,0.203,0.513,0.203c0.182,0,0.368-0.06,0.452-0.104
	l0.095,0.44C12.607,9.589,12.377,9.665,12.123,9.665z"/>
<path fill="#1BAA4B" d="M12.685,5.858c0.226,0.737,0.821,1.313,1.569,1.51C13.976,6.665,13.4,6.109,12.685,5.858z"/>
<path fill="#1BAA4B" d="M15.136,2.604c-1.237,0-2.24,1.003-2.24,2.241c0,0.229,0.033,0.449,0.098,0.657
	c0.716,0.252,1.29,0.807,1.569,1.511c0.184,0.048,0.376,0.074,0.573,0.074c1.238,0,2.241-1.003,2.241-2.242
	S16.374,2.604,15.136,2.604z M15.399,5.985c-0.333,0-0.638-0.136-0.827-0.387c-0.092-0.115-0.16-0.261-0.189-0.441h-0.222v-0.24
	h0.187V4.859c0-0.034,0.004-0.068,0.004-0.102h-0.19V4.516h0.228c0.043-0.183,0.124-0.339,0.233-0.464
	c0.193-0.217,0.464-0.346,0.783-0.346c0.207,0,0.387,0.047,0.51,0.102l-0.096,0.387c-0.088-0.037-0.227-0.082-0.376-0.082
	c-0.164,0-0.313,0.054-0.417,0.183c-0.047,0.055-0.085,0.132-0.108,0.22h0.844v0.242h-0.896c-0.003,0.033-0.003,0.071-0.003,0.105
	v0.054h0.898v0.24H14.91c0.023,0.102,0.062,0.18,0.112,0.238c0.108,0.122,0.268,0.173,0.438,0.173c0.156,0,0.315-0.051,0.387-0.089
	l0.081,0.377C15.813,5.92,15.616,5.985,15.399,5.985z"/>
<path fill="#1BAA4B" d="M20.247,11.593c-0.663-0.095-1.565,0.569-1.565,0.569s0.19-0.189,0-0.616
	c-0.189-0.427-0.711-0.38-1.185-0.38c-0.476,0-1.139,0.475-1.139,0.475s0,0-0.365-0.285c-0.366-0.285-0.916-0.142-1.391,0
	c-0.475,0.143-2.135,1.364-2.135,1.364s1.804,0.012,2.515,0c0.711-0.011,1.091,1.055,0.995,1.529
	c-0.094,0.475-0.9,1.139-1.612,1.328c-0.371,0.1-1.259,0.11-2.063,0.072c-0.737-0.036-1.56,0-1.922,0
	c-0.759,0-2.324-1.305-2.324-1.305s0.379,0,0.854,0.189c0.474,0.19,1.375,0.333,1.611,0.379c0.238,0.048,4.128-0.047,4.46-0.189
	c0.332-0.142,0.474-0.854,0.047-1.186c-0.427-0.333-2.222-0.216-3.028-0.216c-0.808,0-1.858-0.733-3.09-1.587
	c-1.234-0.854-1.661-1.091-2.515-1.186c-0.69-0.076-3.395,1.148-4.406,1.62c-0.056,0.01-0.11,0.031-0.162,0.062l-0.124,0.074
	c-0.063,0.03-0.1,0.047-0.1,0.047l0.004,0.009l-1.146,0.681c-0.218,0.128-0.299,0.394-0.182,0.591l2.234,3.762
	c0.117,0.198,0.389,0.253,0.607,0.124l0.565-0.336l0.003,0.007c0,0,0.026-0.019,0.078-0.055l0.718-0.426
	c0.055-0.033,0.1-0.073,0.137-0.12c0.106-0.063,0.223-0.132,0.35-0.206c0.901-0.522,1.28-0.142,1.28-0.142s3.036,1.613,4.412,2.182
	c1.375,0.569,2.135,0,2.135,0s6.878-4.412,7.969-5.225C21.859,12.385,20.912,11.688,20.247,11.593z"/>
</svg>
