<?xml version="1.0" encoding="utf-8"?>
<!-- Generator: Adobe Illustrator 19.0.0, SVG Export Plug-In . SVG Version: 6.00 Build 0)  -->
<svg version="1.1" id="Isolation_Mode" xmlns="http://www.w3.org/2000/svg" xmlns:xlink="http://www.w3.org/1999/xlink" x="0px"
	 y="0px" viewBox="-294 386.5 21.4 20.5" style="enable-background:new -294 386.5 21.4 20.5;" xml:space="preserve">
<style type="text/css">
	.st0{fill:#FFFFFF;}
</style>
<g>
	<path class="st0" d="M-274.4,388.6c0.5,0,0.9,0.2,1.3,0.5c0.4,0.3,0.5,0.8,0.5,1.3v13.6c0,0.5-0.2,0.9-0.5,1.3
		c-0.4,0.4-0.8,0.5-1.3,0.5h-17.8c-0.5,0-0.9-0.2-1.3-0.5s-0.5-0.8-0.5-1.3v-13.6c0-0.5,0.2-0.9,0.5-1.3c0.3-0.3,0.8-0.5,1.3-0.5
		L-274.4,388.6L-274.4,388.6z M-292.2,390c-0.1,0-0.2,0-0.3,0.1c-0.1,0.1-0.1,0.2-0.1,0.3v2.5h18.6v-2.5c0-0.1,0-0.2-0.1-0.3
		c-0.1-0.1-0.2-0.1-0.3-0.1C-274.4,390-292.2,390-292.2,390z M-274.4,404.3c0.1,0,0.2,0,0.3-0.1c0.1-0.1,0.1-0.2,0.1-0.3v-6.8h-18.5
		v6.8c0,0.1,0,0.2,0.1,0.3c0.1,0.1,0.2,0.1,0.3,0.1H-274.4z M-291.1,402.9v-1.4h2.9v1.4H-291.1z M-286.9,402.9v-1.4h4.3v1.4H-286.9z
		"/>
</g>
</svg>
