<?xml version="1.0" encoding="utf-8"?>
<!-- Generator: Adobe Illustrator 19.0.0, SVG Export Plug-In . SVG Version: 6.00 Build 0)  -->
<svg version="1.1" id="Isolation_Mode" xmlns="http://www.w3.org/2000/svg" xmlns:xlink="http://www.w3.org/1999/xlink" x="0px"
	 y="0px" viewBox="-294 386.5 21.4 20.5" style="enable-background:new -294 386.5 21.4 20.5;" xml:space="preserve">
<style type="text/css">
	.st0{fill:#FFFFFF;}
</style>
<g>
	<path class="st0" d="M-273.6,387.2c0,2.1-0.3,3.8-0.9,5.3c-0.6,1.5-1.7,3-3.1,4.5c-0.7,0.7-1.5,1.4-2.4,2.2l-0.2,4.7
		c0,0.1-0.1,0.2-0.2,0.3l-4.7,2.8c-0.1,0-0.1,0-0.2,0c-0.1,0-0.2,0-0.3-0.1l-0.8-0.8c-0.1-0.1-0.1-0.2-0.1-0.4l1.1-3.4l-3.5-3.5
		l-3.4,1.1c0,0-0.1,0-0.1,0c-0.1,0-0.2,0-0.3-0.1l-0.8-0.8c-0.1-0.2-0.2-0.3-0.1-0.5l2.8-4.7c0.1-0.1,0.2-0.2,0.3-0.2l4.7-0.2
		c0.8-0.9,1.5-1.7,2.2-2.4c1.6-1.5,3-2.6,4.4-3.2c1.4-0.6,3.2-0.9,5.3-0.9c0.1,0,0.2,0,0.3,0.1C-273.6,387-273.6,387.1-273.6,387.2z
		 M-276.7,391.6c0.2-0.2,0.3-0.5,0.3-0.8c0-0.3-0.1-0.6-0.3-0.8c-0.2-0.2-0.5-0.3-0.8-0.3c-0.3,0-0.6,0.1-0.8,0.3
		c-0.2,0.2-0.3,0.5-0.3,0.8c0,0.3,0.1,0.6,0.3,0.8c0.2,0.2,0.5,0.3,0.8,0.3C-277.2,391.9-276.9,391.8-276.7,391.6z"/>
</g>
</svg>
