<?xml version="1.0" encoding="utf-8"?>
<!-- Generator: Adobe Illustrator 19.0.0, SVG Export Plug-In . SVG Version: 6.00 Build 0)  -->
<svg version="1.1" id="Isolation_Mode" xmlns="http://www.w3.org/2000/svg" xmlns:xlink="http://www.w3.org/1999/xlink" x="0px"
	 y="0px" viewBox="-294 386.5 21.4 20.5" style="enable-background:new -294 386.5 21.4 20.5;" xml:space="preserve">
<style type="text/css">
	.st0{fill:#FFFFFF;}
</style>
<g>
	<path class="st0" d="M-272.6,388.8v12.1c0,0.5-0.2,0.9-0.5,1.3s-0.8,0.5-1.3,0.5h-6.1c0,0.3,0.1,0.6,0.2,0.9
		c0.1,0.3,0.2,0.6,0.4,0.8c0.1,0.2,0.2,0.4,0.2,0.5c0,0.2-0.1,0.4-0.2,0.5c-0.1,0.1-0.3,0.2-0.5,0.2h-5.7c-0.2,0-0.4-0.1-0.5-0.2
		c-0.1-0.1-0.2-0.3-0.2-0.5c0-0.1,0.1-0.3,0.2-0.5c0.1-0.2,0.2-0.5,0.4-0.8c0.1-0.3,0.2-0.6,0.2-0.9h-6.1c-0.5,0-0.9-0.2-1.3-0.5
		s-0.5-0.8-0.5-1.3v-12.1c0-0.5,0.2-0.9,0.5-1.3s0.8-0.5,1.3-0.5h17.9c0.5,0,0.9,0.2,1.3,0.5C-272.7,387.9-272.6,388.3-272.6,388.8z
		 M-274,398.1v-9.3c0-0.1,0-0.2-0.1-0.3c-0.1-0.1-0.2-0.1-0.3-0.1h-17.9c-0.1,0-0.2,0-0.3,0.1c-0.1,0.1-0.1,0.2-0.1,0.3v9.3
		c0,0.1,0,0.2,0.1,0.3c0.1,0.1,0.2,0.1,0.3,0.1h17.9c0.1,0,0.2,0,0.3-0.1C-274,398.3-274,398.2-274,398.1z"/>
</g>
</svg>
