<?xml version="1.0" encoding="utf-8"?>
<!-- Generator: Adobe Illustrator 25.0.1, SVG Export Plug-In . SVG Version: 6.00 Build 0)  -->
<svg version="1.1" id="Layer_1" xmlns="http://www.w3.org/2000/svg" xmlns:xlink="http://www.w3.org/1999/xlink" x="0px" y="0px"
	 width="476.3px" height="236.3px" viewBox="0 0 476.3 236.3" style="enable-background:new 0 0 476.3 236.3;" xml:space="preserve"
	>
<style type="text/css">
	.st0{fill:#FFFFFF;}
</style>
<path class="st0" d="M247.6,80.9c14.1,0,27.1-0.1,40,0.2c1.7,0,3.9,2.2,4.8,4c8.4,17.3,16.5,34.8,24.7,52.2c0.8,1.8,1.8,3.4,3.2,6
	c1.4-2.5,2.4-4.2,3.2-5.9c20.8-44.1,41.7-88.2,62.3-132.4c1.6-3.5,3.5-5,7.5-4.9c12.3,0.3,24.5,0.1,37.8,0.1
	c-36.9,78.4-73.5,156-110,233.6c-0.5,0-1-0.1-1.5-0.1C295.7,183,271.9,132.4,247.6,80.9z"/>
<path class="st0" d="M18.9,185.6c5,0,10-0.2,15,0.1c1.5,0.1,3.7,1.6,4.1,2.9c2.3,6.8,7,10.9,13.9,12.1c8,1.5,16.2,2,24-1.1
	c6.5-2.6,9-6.3,8.7-12.4c-0.2-4.8-3-8.6-9.5-10c-10-2.2-20.2-3.4-30.3-5.4c-13.4-2.7-26.1-7.3-34.8-18.6
	c-13.5-17.5-13.5-50.9,14.2-65.1c22.9-11.8,46.8-12,70.1-1c14.7,6.9,22.8,19.4,25.3,35.4c0.5,3.4,0.1,5.7-4.4,5.6
	c-9.5-0.3-19,0-28.4-0.2c-1.5,0-3.9-1.4-4.3-2.6c-2.4-7-7.4-10.9-14.3-11.4c-6.5-0.4-13.2,0.1-19.5,1.5c-5.6,1.2-8.7,6.4-8.6,11.5
	c0.1,5.6,3.5,9.2,8.5,10.4c8.2,1.9,16.6,3.1,24.9,4.5c13,2.2,25.7,5.4,36.3,13.8c6.8,5.4,11.1,12.3,13,20.6
	c5.5,23.5-3.7,43.1-26,52.5c-25.1,10.6-50.6,10.4-74.9-2.9C7.6,218.1,1.4,204.7,0,189c-0.1-1,2.2-3.1,3.5-3.2
	C8.6,185.4,13.8,185.6,18.9,185.6z"/>
<path class="st0" d="M289.8,233.2c-2.1,0.2-3.3,0.5-4.6,0.5c-11.1,0-22.3-0.1-33.4,0.1c-3.1,0.1-4.9-1-6.1-3.9
	c-1.6-4-3.8-7.8-5.2-11.8c-1.3-3.4-3.4-4.3-6.8-4.3c-16.1,0.1-32.3,0.1-48.4,0c-3.5,0-5.7,0.8-6.7,4.4c-0.5,1.9-1.6,3.6-2.4,5.4
	c-5.7,12.5-2,9.8-15.8,10.1c-9.9,0.2-19.9,0-30.8,0c0.8-2.2,1.2-3.7,1.9-5.1c22.3-47.3,44.7-94.5,66.9-141.9
	c2.2-4.7,4.9-5.8,9.8-6.2c7.8-0.6,11.5,2.1,14.8,9.3c21.1,45.8,42.8,91.4,64.3,137.1C287.9,228.8,288.7,230.7,289.8,233.2z
	 M224,180.3c-4.7-12.8-9.2-24.9-13.6-37c-0.5,0-1,0-1.5,0.1c-4.7,12.1-9.3,24.2-14.3,36.9C204.8,180.3,213.8,180.3,224,180.3z"/>
<path class="st0" d="M351.9,233.1c5.6-11.9,10.9-23.2,16.2-34.4c8.7-18.5,17.5-36.9,26-55.4c1.5-3.3,3.5-4.6,7.2-4.5
	c21.1,0.2,42.3,0.2,63.4,0c4.4,0,5.8,1.2,5.6,5.6c-0.3,7.8-0.3,15.6,0,23.4c0.2,4.2-1.3,5.4-5.4,5.4c-21.3-0.2-42.6-0.1-63.9-0.1
	c-7.4,0-7.4,0.1-7.4,7.6c0,4.2,0.2,8.3,0,12.5c-0.2,4.1,1.4,5.5,5.5,5.5c23.6-0.2,47.2,0.1,70.9-0.2c5.1-0.1,6.7,1.3,6.4,6.4
	c-0.4,8.1-0.2,16.3-0.1,24.4c0.1,3.1-0.9,4.5-4.2,4.4c-38.8-0.1-77.5-0.1-116.3-0.1C354.7,233.7,353.8,233.4,351.9,233.1z"/>
<path class="st0" d="M407.8,114.2c5-10.5,9.9-21.2,15.1-31.7c0.5-1,2.7-1.7,4.2-1.8c14.3-0.1,28.6,0,42.9-0.1c2.9,0,4.2,0.9,4.2,4
	c-0.1,8.8-0.1,17.6,0,26.4c0,2.7-0.8,4-3.7,3.9c-20.4-0.1-40.9-0.1-61.4-0.1C408.9,115,408.6,114.7,407.8,114.2z"/>
</svg>
