<?xml version="1.0" encoding="utf-8"?>
<!-- Generator: Adobe Illustrator 19.0.0, SVG Export Plug-In . SVG Version: 6.00 Build 0)  -->
<svg version="1.1" id="Isolation_Mode" xmlns="http://www.w3.org/2000/svg" xmlns:xlink="http://www.w3.org/1999/xlink" x="0px"
	 y="0px" viewBox="-294 386.5 21.4 20.5" style="enable-background:new -294 386.5 21.4 20.5;" xml:space="preserve">
<style type="text/css">
	.st0{fill:#FFFFFF;}
</style>
<g>
	<path class="st0" d="M-272.6,393.3v4.5h-21.1v-4.5c0-0.5,0.2-1,0.6-1.3s0.8-0.6,1.3-0.6h4.1v-1.9c0-0.3,0.1-0.6,0.3-0.8
		s0.5-0.3,0.8-0.3h6.8c0.3,0,0.6,0.1,0.8,0.3c0.2,0.2,0.3,0.5,0.3,0.8v1.9h4.1c0.5,0,1,0.2,1.3,0.6
		C-272.8,392.4-272.6,392.8-272.6,393.3z M-272.6,399v5.7c0,0.5-0.2,1-0.6,1.3c-0.4,0.4-0.8,0.6-1.3,0.6h-17.3c-0.5,0-1-0.2-1.3-0.6
		c-0.4-0.4-0.6-0.8-0.6-1.3V399h7.9v1.9c0,0.2,0.1,0.4,0.2,0.5c0.2,0.1,0.3,0.2,0.5,0.2h3.8c0.2,0,0.4-0.1,0.5-0.2
		c0.1-0.1,0.2-0.3,0.2-0.5V399H-272.6z M-286.2,391.5h6V390h-6C-286.2,390-286.2,391.5-286.2,391.5z M-281.7,399v1.5h-3V399H-281.7z
		"/>
</g>
</svg>
