<?xml version="1.0" encoding="utf-8"?>
<!-- Generator: Adobe Illustrator 25.0.1, SVG Export Plug-In . SVG Version: 6.00 Build 0)  -->
<svg version="1.1" id="Layer_1" xmlns="http://www.w3.org/2000/svg" xmlns:xlink="http://www.w3.org/1999/xlink" x="0px" y="0px"
	 width="512px" height="512px" viewBox="0 0 512 512" style="enable-background:new 0 0 512 512;" xml:space="preserve">
<style type="text/css">
	.st0{fill:#FFFFFF;}
	.st1{fill:#00A844;}
</style>
<rect x="47" y="172" class="st0" width="414" height="169"/>
<path class="st1" d="M256,0.7C114.8,0.7,0,115.5,0,256.7c14.1,339.6,498,339.5,512,0C512,115.5,397.2,0.7,256,0.7L256,0.7z
	 M174.4,210.9l-16.1,96.4c-1.1,6.4-6.1,11.4-12.6,12.4c-6.4,1-12.7-2.3-15.6-8.1l-27.6-55.1l-8.5,50.9c-0.7,4.2-5.6,14.3-17.3,12.3
	c-8.2-1.4-13.7-9.1-12.3-17.3L80.5,206c1.1-6.4,6.1-11.4,12.6-12.4c6.4-1,12.7,2.3,15.6,8.1l27.6,55.1l8.5-50.9
	c1.4-8.2,9.1-13.7,17.3-12.3C170.2,195,175.8,202.8,174.4,210.9L174.4,210.9z M272.1,223.5h-43.5l-3,18.2H256
	c19.9,0.8,19.9,29.2,0,30h-35.5l-3,18.2H256c19.9,0.8,19.9,29.2,0,30h-56.2c-9.3,0-16.3-8.3-14.8-17.5L201,206
	c1.2-7.2,7.5-12.5,14.8-12.5h56.2C292,194.3,292,222.7,272.1,223.5L272.1,223.5z M397.9,311.6c-2.9,5.7-9.1,9-15.4,8.2
	c-6.4-0.9-11.5-5.6-12.7-11.9l-8.5-42.3l-28.2,47.1c-7.9,12.9-27.7,7.4-27.9-7.7v-96.4c0.8-19.9,29.2-19.9,30,0v42.2l20.3-33.9
	c3.2-5.3,9.3-8.1,15.4-7.1c6.1,1.1,10.9,5.8,12.1,11.8l7.5,37.5l28.6-57.3c9.6-17.4,35-4.7,26.8,13.4L397.9,311.6z"/>
</svg>
