<?xml version="1.0" encoding="utf-8"?>
<!-- Generator: Adobe Illustrator 19.0.0, SVG Export Plug-In . SVG Version: 6.00 Build 0)  -->
<svg version="1.1" id="Isolation_Mode" xmlns="http://www.w3.org/2000/svg" xmlns:xlink="http://www.w3.org/1999/xlink" x="0px"
	 y="0px" viewBox="-294 386.5 21.4 20.5" style="enable-background:new -294 386.5 21.4 20.5;" xml:space="preserve">
<style type="text/css">
	.st0{fill:#FFFFFF;}
</style>
<path class="st0" d="M-279.7,393.9c-0.3-0.7-0.9-1.3-1.6-1.5c-0.3-0.1-0.6-0.1-0.9-0.1c-1.4,0-2.6,1.2-2.6,2.6
	c0,1.4,1.2,2.6,2.6,2.6c1.4,0,2.6-1.2,2.6-2.6C-279.6,394.5-279.6,394.2-279.7,393.9z M-281.9,396.2c-0.4,0-0.7-0.2-1-0.5
	c-0.1-0.1-0.2-0.3-0.2-0.5h-0.3V395h0.2v-0.1c0,0,0-0.1,0-0.1h-0.2v-0.3h0.3c0.1-0.2,0.1-0.4,0.3-0.5c0.2-0.3,0.5-0.4,0.9-0.4
	c0.2,0,0.5,0.1,0.6,0.1l-0.1,0.5c-0.1,0-0.3-0.1-0.4-0.1c-0.2,0-0.4,0.1-0.5,0.2c-0.1,0.1-0.1,0.2-0.1,0.3h1v0.3h-1c0,0,0,0.1,0,0.1
	v0.1h1.1v0.3h-1c0,0.1,0.1,0.2,0.1,0.3c0.1,0.1,0.3,0.2,0.5,0.2c0.2,0,0.4-0.1,0.5-0.1l0.1,0.4
	C-281.4,396.1-281.6,396.2-281.9,396.2z"/>
<path class="st0" d="M-281.3,392.4c0.2,0.7,0.8,1.3,1.6,1.5C-280,393.2-280.6,392.7-281.3,392.4z"/>
<path class="st0" d="M-278.9,389.1c-1.2,0-2.2,1-2.2,2.2c0,0.2,0,0.4,0.1,0.7c0.7,0.3,1.3,0.8,1.6,1.5c0.2,0,0.4,0.1,0.6,0.1
	c1.2,0,2.2-1,2.2-2.2S-277.6,389.1-278.9,389.1z M-278.6,392.5c-0.3,0-0.6-0.1-0.8-0.4c-0.1-0.1-0.2-0.3-0.2-0.4h-0.2v-0.2h0.2v-0.1
	c0,0,0-0.1,0-0.1h-0.2v-0.2h0.2c0-0.2,0.1-0.3,0.2-0.5c0.2-0.2,0.5-0.3,0.8-0.3c0.2,0,0.4,0,0.5,0.1l-0.1,0.4
	c-0.1,0-0.2-0.1-0.4-0.1c-0.2,0-0.3,0.1-0.4,0.2c0,0.1-0.1,0.1-0.1,0.2h0.8v0.2h-0.9c0,0,0,0.1,0,0.1v0.1h0.9v0.2h-0.9
	c0,0.1,0.1,0.2,0.1,0.2c0.1,0.1,0.3,0.2,0.4,0.2c0.2,0,0.3-0.1,0.4-0.1l0.1,0.4C-278.2,392.5-278.4,392.5-278.6,392.5z"/>
<path class="st0" d="M-273.8,398.1c-0.7-0.1-1.6,0.6-1.6,0.6s0.2-0.2,0-0.6c-0.2-0.4-0.7-0.4-1.2-0.4c-0.5,0-1.1,0.5-1.1,0.5
	s0,0-0.4-0.3c-0.4-0.3-0.9-0.1-1.4,0c-0.5,0.1-2.1,1.4-2.1,1.4s1.8,0,2.5,0c0.7,0,1.1,1.1,1,1.5c-0.1,0.5-0.9,1.1-1.6,1.3
	c-0.4,0.1-1.3,0.1-2.1,0.1c-0.7,0-1.6,0-1.9,0c-0.8,0-2.3-1.3-2.3-1.3s0.4,0,0.9,0.2c0.5,0.2,1.4,0.3,1.6,0.4c0.2,0,4.1,0,4.5-0.2
	s0.5-0.9,0-1.2c-0.4-0.3-2.2-0.2-3-0.2c-0.8,0-1.9-0.7-3.1-1.6c-1.2-0.9-1.7-1.1-2.5-1.2c-0.7-0.1-3.4,1.1-4.4,1.6
	c-0.1,0-0.1,0-0.2,0.1l-0.1,0.1c-0.1,0-0.1,0-0.1,0l0,0l-1.1,0.7c-0.2,0.1-0.3,0.4-0.2,0.6l2.2,3.8c0.1,0.2,0.4,0.3,0.6,0.1l0.6-0.3
	l0,0c0,0,0,0,0.1-0.1l0.7-0.4c0.1,0,0.1-0.1,0.1-0.1c0.1-0.1,0.2-0.1,0.4-0.2c0.9-0.5,1.3-0.1,1.3-0.1s3,1.6,4.4,2.2
	c1.4,0.6,2.1,0,2.1,0s6.9-4.4,8-5.2C-272.1,398.9-273.1,398.2-273.8,398.1z"/>
</svg>
