<?xml version="1.0" encoding="utf-8"?>
<!-- Generator: Adobe Illustrator 19.0.0, SVG Export Plug-In . SVG Version: 6.00 Build 0)  -->
<svg version="1.1" id="Isolation_Mode" xmlns="http://www.w3.org/2000/svg" xmlns:xlink="http://www.w3.org/1999/xlink" x="0px"
	 y="0px" viewBox="-294 386.5 21.4 20.5" style="enable-background:new -294 386.5 21.4 20.5;" xml:space="preserve">
<style type="text/css">
	.st0{fill:#FFFFFF;}
</style>
<g>
	<path class="st0" d="M-278.7,404.2v1.1h-9.6v-1.1c0-0.1,0-0.2,0-0.3c0.1-0.6,0.5-1,1.1-1.2l1.4-0.5l0.9-0.3v-1
		c-0.8-0.5-1.3-1.5-1.3-2.6c0-0.1,0-0.2,0-0.4c0.4,0.2,0.9,0.4,1.2,0.4c0.7,0,1.4-0.3,1.8-0.7c0.5,0.6,1,0.7,1.8,0.7
		c0.2,0,0.3,0,0.5-0.1c0,0,0,0.1,0,0.1c0,1.1-0.4,2-1.1,2.6v1.1l2.2,0.8C-279.1,402.9-278.7,403.5-278.7,404.2z"/>
	<path class="st0" d="M-283.3,396.9l0.2-0.4l0.2,0.4c0.4,0.7,0.8,0.8,1.6,0.8c0.1,0,0.3-0.1,0.4-0.1c-0.2-1.4-1.3-2.5-2.6-2.5
		c-1.2,0-2.2,1-2.5,2.3c0.4,0.2,0.9,0.4,1.1,0.4C-284.3,397.7-283.6,397.3-283.3,396.9z"/>
</g>
<g>
	<path class="st0" d="M-286,401.4l-1.4,0.5c-0.6,0.2-1,0.7-1.1,1.2h-5.5v-1c0-0.6,0.4-1.1,1-1.4l1.9-0.7v-0.9
		c-0.6-0.5-1.1-1.3-1.1-2.3c0-0.1,0-0.2,0-0.3c0.3,0.1,0.7,0.3,1,0.3c0.6,0,1.2-0.3,1.5-0.6c0.4,0.5,0.9,0.6,1.5,0.6
		c0.1,0,0.3,0,0.4-0.1c0,0,0,0.1,0,0.1c0,0.9-0.4,1.7-1,2.2v0.9l1.9,0.7C-286.4,400.9-286.2,401.1-286,401.4z"/>
	<path class="st0" d="M-289.8,395.9l0.2-0.3l0.2,0.3c0.3,0.6,0.7,0.7,1.4,0.7c0.1,0,0.3-0.1,0.4-0.1c-0.2-1.2-1.1-2.1-2.2-2.1
		c-1,0-1.9,0.8-2.2,1.9c0.3,0.1,0.8,0.3,0.9,0.3C-290.6,396.6-290,396.3-289.8,395.9z"/>
</g>
<g>
	<path class="st0" d="M-278,399.3c-0.6-0.5-1.1-1.3-1.1-2.3c0-0.1,0-0.2,0-0.3c0.3,0.1,0.7,0.3,1,0.3c0.6,0,1.2-0.3,1.5-0.6
		c0.4,0.5,0.9,0.6,1.5,0.6c0.1,0,0.3,0,0.4-0.1c0,0,0,0.1,0,0.1c0,0.9-0.4,1.7-1,2.2v0.6h-2.5C-278,399.8-278,399.3-278,399.3z"/>
	<path class="st0" d="M-273.6,400.8l-1.9-0.7v-0.4h-2.5v0.4l-1.9,0.7c-0.3,0.1-0.6,0.3-0.7,0.6l1.4,0.5c0.6,0.2,1,0.7,1.1,1.2h5.5
		v-1C-272.7,401.5-273.1,401-273.6,400.8z"/>
	<path class="st0" d="M-276.7,396l0.2-0.3l0.2,0.3c0.3,0.6,0.7,0.7,1.4,0.7c0.1,0,0.3-0.1,0.4-0.1c-0.2-1.2-1.1-2.2-2.2-2.2
		c-1,0-1.9,0.8-2.2,1.9c0.3,0.1,0.8,0.3,0.9,0.3C-277.5,396.6-276.9,396.3-276.7,396z"/>
</g>
<path class="st0" d="M-284.8,390.5c-0.5,0.4-0.8,1-0.8,1.7c0,0,0,0.1,0,0.1C-285.1,391.9-284.8,391.3-284.8,390.5
	C-284.8,390.6-284.8,390.6-284.8,390.5z"/>
<path class="st0" d="M-285.2,390.3c0-0.2-0.1-0.5-0.1-0.7c-0.2-0.6-0.7-1-1.3-1.2c-0.2-0.1-0.5-0.1-0.7-0.1c-1.2,0-2.1,1-2.1,2.1
	c0,1.2,1,2.1,2.1,2.1c0.5,0,1-0.2,1.3-0.5c0,0,0-0.1,0-0.1C-286,391.3-285.7,390.7-285.2,390.3z M-287.1,391.5
	c-0.3,0-0.6-0.1-0.8-0.4c-0.1-0.1-0.2-0.2-0.2-0.4h-0.2v-0.2h0.2v-0.1c0,0,0-0.1,0-0.1h-0.2v-0.2h0.2c0-0.2,0.1-0.3,0.2-0.4
	c0.2-0.2,0.4-0.3,0.7-0.3c0.2,0,0.4,0,0.5,0.1l-0.1,0.4c-0.1,0-0.2-0.1-0.4-0.1c-0.2,0-0.3,0.1-0.4,0.2c0,0.1-0.1,0.1-0.1,0.2h0.8
	v0.2h-0.9c0,0,0,0.1,0,0.1v0.1h0.9v0.2h-0.8c0,0.1,0.1,0.2,0.1,0.2c0.1,0.1,0.3,0.2,0.4,0.2c0.1,0,0.3,0,0.4-0.1l0.1,0.4
	C-286.7,391.5-286.9,391.5-287.1,391.5z"/>
<path class="st0" d="M-281.5,391.4c-0.2-0.5-0.5-0.9-1-1.1c0,0.1,0,0.2,0,0.3c0,0.8,0.4,1.5,1.1,1.9c0-0.1,0-0.2,0-0.3
	C-281.3,391.9-281.4,391.7-281.5,391.4z"/>
<path class="st0" d="M-277.9,389.5c-0.2-0.6-0.7-1-1.3-1.2c-0.2-0.1-0.5-0.1-0.7-0.1c-1.1,0-2,0.8-2.1,1.9c0.4,0.2,0.8,0.6,1,1.1
	c0.1,0.2,0.1,0.5,0.1,0.8c0,0.1,0,0.2,0,0.3c0.3,0.2,0.7,0.3,1,0.3c1.2,0,2.1-1,2.1-2.1C-277.8,390.1-277.8,389.8-277.9,389.5z
	 M-279.7,391.4c-0.3,0-0.6-0.1-0.8-0.4c-0.1-0.1-0.2-0.3-0.2-0.4h-0.2v-0.2h0.2v-0.1c0,0,0-0.1,0-0.1h-0.2V390h0.2
	c0-0.2,0.1-0.3,0.2-0.4c0.2-0.2,0.4-0.3,0.8-0.3c0.2,0,0.4,0,0.5,0.1l-0.1,0.4c-0.1,0-0.2-0.1-0.4-0.1c-0.2,0-0.3,0.1-0.4,0.2
	c0,0.1-0.1,0.1-0.1,0.2h0.8v0.2h-0.9c0,0,0,0.1,0,0.1v0.1h0.9v0.2h-0.8c0,0.1,0.1,0.2,0.1,0.2c0.1,0.1,0.3,0.2,0.4,0.2
	c0.1,0,0.3,0,0.4-0.1l0.1,0.4C-279.3,391.4-279.5,391.4-279.7,391.4z"/>
<path class="st0" d="M-281.5,391.4c-0.2-0.5-0.5-0.9-1-1.1c-0.1-0.1-0.2-0.1-0.3-0.1c-0.2-0.1-0.5-0.1-0.7-0.1c-0.5,0-1,0.2-1.3,0.5
	c-0.5,0.4-0.8,1-0.8,1.7c0,0,0,0.1,0,0.1c0,1.1,1,2,2.1,2c1.1,0,2-0.8,2.1-1.9c0-0.1,0-0.2,0-0.3
	C-281.3,391.9-281.4,391.7-281.5,391.4z M-283.2,393.3c-0.3,0-0.6-0.1-0.8-0.4c-0.1-0.1-0.2-0.2-0.2-0.4h-0.2v-0.2h0.2v-0.1
	c0,0,0-0.1,0-0.1h-0.2v-0.2h0.2c0-0.2,0.1-0.3,0.2-0.4c0.2-0.2,0.4-0.3,0.8-0.3c0.2,0,0.4,0,0.5,0.1l-0.1,0.4
	c-0.1,0-0.2-0.1-0.4-0.1c-0.2,0-0.3,0.1-0.4,0.2c0,0.1-0.1,0.1-0.1,0.2h0.8v0.2h-0.9c0,0,0,0.1,0,0.1v0.1h0.9v0.2h-0.8
	c0,0.1,0.1,0.2,0.1,0.2c0.1,0.1,0.3,0.2,0.4,0.2c0.1,0,0.3,0,0.4-0.1l0.1,0.4C-282.8,393.2-283,393.3-283.2,393.3z"/>
</svg>
