<?xml version="1.0" encoding="utf-8"?>
<!-- Generator: Adobe Illustrator 16.0.0, SVG Export Plug-In . SVG Version: 6.00 Build 0)  -->
<!DOCTYPE svg PUBLIC "-//W3C//DTD SVG 1.1//EN" "http://www.w3.org/Graphics/SVG/1.1/DTD/svg11.dtd">
<svg version="1.1" id="Objects" xmlns="http://www.w3.org/2000/svg" xmlns:xlink="http://www.w3.org/1999/xlink" x="0px" y="0px"
	 width="190.633px" height="193.816px" viewBox="0 0 190.633 193.816" enable-background="new 0 0 190.633 193.816"
	 xml:space="preserve">
<g>
	<circle fill="#C0CACA" cx="95.316" cy="95.316" r="95.316"/>
	<g>
		<g>
			<path fill="#FFFFFF" d="M126.631,82.617c0,23.831-15.364,50.701-30.934,50.701c-15.57,0-31.501-25.641-31.501-49.472
				c0-10.978-0.032-24.235,5-32.11C75.087,42.514,86.701,39.56,95.1,39.56c8.521,0,19.798,2.504,25.873,11.625
				C125.998,58.729,126.631,71.829,126.631,82.617z"/>
		</g>
		<g>
			<path fill="#FFFFFF" d="M94.27,193.816c18.571,0,35.833-5.564,50.242-15.095c-1.025-8.522-2.352-17.122-3.678-18.944
				c-2.791-3.839-17.785-19.539-45.439-19.539c-27.652,0-42.644,15.7-45.436,19.539c-1.396,1.919-2.793,11.343-3.838,20.285
				C60.097,188.771,76.591,193.816,94.27,193.816z"/>
		</g>
		<g opacity="0.2">
			<path fill="#FFFFFF" d="M49.959,159.776c-1.396,1.919-2.793,11.343-3.838,20.285c13.976,8.709,30.47,13.755,48.148,13.755
				c0.378,0,0.75-0.023,1.125-0.028v-53.55C67.742,140.238,52.751,155.938,49.959,159.776z"/>
		</g>
		<g>
			<path fill="#FFFFFF" d="M95.697,133.317l-12.16-6.479v14.448c0,0,3.866,15.002,12.16,15.002c8.291,0,12.158-15.002,12.158-15.002
				v-14.448L95.697,133.317z"/>
		</g>
		<g>
			<polygon fill="#FFFFFF" points="95.697,133.317 83.537,141.286 83.537,126.845 			"/>
		</g>
		<g>
			<path fill="#FFFFFF" d="M125.679,89.125c0,0-7.094-19.358-13.548-24.129c0,0-23.285,23.642-40.962,25.1h-5.891
				c0,0-12.37-50.537,29.821-50.537C137.289,39.56,125.679,89.125,125.679,89.125L125.679,89.125z"/>
		</g>
	</g>
</g>
</svg>
